<svg width="288" height="144" viewBox="0 0 288 144" fill="none" xmlns="http://www.w3.org/2000/svg">
<path d="M1.25889e-05 -2.51778e-05C1.09357e-05 18.9103 3.72468 37.6355 10.9614 55.1064C18.198 72.5773 28.805 88.4517 42.1766 101.823C55.5483 115.195 71.4227 125.802 88.8936 133.039C106.364 140.275 125.09 144 144 144C162.91 144 181.636 140.275 199.106 133.039C216.577 125.802 232.452 115.195 245.823 101.823C259.195 88.4517 269.802 72.5773 277.039 55.1064C284.275 37.6355 288 18.9103 288 -1.25889e-05L144 -1.25889e-05L1.25889e-05 -2.51778e-05Z" fill="#02AC8F"/>
</svg>
