<svg width="93" height="81" viewBox="0 0 93 81" fill="none" xmlns="http://www.w3.org/2000/svg">
<circle cx="40" cy="40.2227" r="40" fill="#02AC8F" fill-opacity="0.2"/>
<g clip-path="url(#clip0_1_4843)">
<path d="M91.1962 39.3275L69.3921 30.3633C68.9295 30.1758 68.4294 30.1758 67.9668 30.3633L46.1627 39.3275C45.4626 39.615 45 40.3027 45 41.0653V69.3956C45 70.1583 45.4626 70.8459 46.1627 71.1335L67.9668 80.0851C68.1919 80.1851 68.4419 80.2227 68.6794 80.2227C68.8545 80.2227 69.0295 80.1976 69.192 80.1476L69.2045 80.1852L69.4171 80.0726C69.4546 80.0601 69.4921 80.0476 69.5421 80.0226L91.1962 71.1335C91.9088 70.8459 92.3589 70.1583 92.3589 69.3956V41.0653C92.3589 40.3027 91.9088 39.615 91.1962 39.3275ZM85.6951 41.1278L68.6919 48.1166L61.5281 45.1661L78.0062 37.9772L85.6951 41.1278ZM51.6763 41.1278L68.6794 34.139L73.1678 35.9769L56.6647 43.1782L51.6763 41.1278ZM56.9022 56.2557C57.9399 56.2557 58.7776 55.418 58.7776 54.3803V48.1166L66.8041 51.4173V75.5593L48.7632 68.1329V44.0034L55.0144 46.5788V54.3803C55.0144 55.4055 55.8645 56.2557 56.9022 56.2557ZM88.5957 44.0034V68.1454L70.5548 75.5593V51.4048L88.5957 44.0034Z" fill="#02AC8F"/>
</g>
<defs>
<clipPath id="clip0_1_4843">
<rect width="47.35" height="50" fill="white" transform="translate(45 30.2227)"/>
</clipPath>
</defs>
</svg>
