<svg width="93" height="81" viewBox="0 0 93 81" fill="none" xmlns="http://www.w3.org/2000/svg">
<g clip-path="url(#clip0_1_4852)">
<path d="M90.9135 30.2227H45.0865C43.937 30.2227 43 31.1597 43 32.3091C43 39.8678 45.2364 46.477 50.034 53.1237C52.9825 57.1967 58.1674 60.2077 61.0535 61.6569V73.3511C61.0535 74.1382 61.5157 74.8753 62.2279 75.2252L71.9355 79.9853C72.2229 80.1227 72.5352 80.1977 72.8476 80.1977C73.2349 80.1977 73.6222 80.0852 73.947 79.8853C74.5592 79.498 74.934 78.8358 74.934 78.1112V70.1152C74.934 68.9658 73.997 68.0287 72.8476 68.0287C71.6981 68.0287 70.7611 68.9658 70.7611 70.1152V74.7754L65.2264 72.0642V60.3576C65.2264 59.5455 64.7516 58.7959 64.0145 58.4585C60.4038 56.7969 55.7311 53.8858 53.4198 50.6874C49.5842 45.3776 47.6227 40.1927 47.2479 34.3956H88.7646C88.3898 40.1927 86.4158 45.3651 82.5927 50.6749C80.1439 54.0607 75.5462 57.0342 72.0605 58.471C70.9985 58.9083 70.4863 60.1327 70.936 61.1947C71.1484 61.7069 71.5482 62.1067 72.0605 62.3191C72.5727 62.5315 73.1474 62.5315 73.6597 62.3191C77.3828 60.7699 82.8551 57.434 85.966 53.1112C90.7636 46.4645 93 39.8553 93 32.2966C93 31.1597 92.063 30.2227 90.9135 30.2227Z" fill="#02AC8F"/>
</g>
<circle cx="40" cy="40.2227" r="40" fill="#02AC8F" fill-opacity="0.2"/>
<defs>
<clipPath id="clip0_1_4852">
<rect width="50" height="50" fill="white" transform="translate(43 30.2227)"/>
</clipPath>
</defs>
</svg>
