<svg width="89" height="81" viewBox="0 0 89 81" fill="none" xmlns="http://www.w3.org/2000/svg">
<circle cx="40" cy="40.2227" r="40" fill="#02AC8F" fill-opacity="0.2"/>
<g clip-path="url(#clip0_1_4816)">
<path d="M86.2595 42.0049H81.7553H54.7511H50.2468C49.0127 42.0049 48 43.0175 48 44.2517C48 45.4964 49.0127 46.4986 50.2468 46.4986H52.4937V73.5028C52.4937 77.2264 55.5211 80.2538 59.2447 80.2538H77.2511C80.9747 80.2538 84.0021 77.2264 84.0021 73.5028V46.4986H86.2489C87.4937 46.4986 88.4958 45.4859 88.4958 44.2517C88.5063 43.0175 87.4937 42.0049 86.2595 42.0049ZM79.5084 73.5133C79.5084 74.758 78.4958 75.7602 77.2616 75.7602H59.2553C58.0105 75.7602 57.0084 74.7475 57.0084 73.5133V46.5091H79.5084V73.5133Z" fill="#02AC8F"/>
<path d="M63.749 39.7581H72.7469C73.9917 39.7581 74.9938 38.7455 74.9938 37.5113C74.9938 36.2771 73.9916 35.2539 72.7575 35.2539H63.7596C62.5149 35.2539 61.5022 36.2666 61.5022 37.5007C61.5022 38.7349 62.5149 39.7581 63.749 39.7581Z" fill="#02AC8F"/>
<path d="M63.749 69.0094C64.9938 69.0094 65.9959 67.9968 65.9959 66.7626V53.2605C65.9959 52.0158 64.9832 51.0137 63.749 51.0137C62.5043 51.0137 61.5022 52.0263 61.5022 53.2605V66.7626C61.5022 67.9968 62.5149 69.0094 63.749 69.0094Z" fill="#02AC8F"/>
<path d="M72.7574 69.0094C74.0022 69.0094 75.0043 67.9968 75.0043 66.7626V53.2605C75.0043 52.0158 73.9916 51.0137 72.7574 51.0137C71.5127 51.0137 70.5106 52.0263 70.5106 53.2605V66.7626C70.5 67.9968 71.5127 69.0094 72.7574 69.0094Z" fill="#02AC8F"/>
</g>
<defs>
<clipPath id="clip0_1_4816">
<rect width="40.4968" height="45" fill="white" transform="translate(48 35.2227)"/>
</clipPath>
</defs>
</svg>
