<svg width="93" height="81" viewBox="0 0 93 81" fill="none" xmlns="http://www.w3.org/2000/svg">
<path d="M92.6408 54.5596L89.7379 50.8217L85.0389 41.4722C84.7476 40.8897 84.1554 40.5305 83.5049 40.5305H76.9709V39.1033C76.9709 38.1615 76.2039 37.3945 75.2622 37.3945H49.1457C48.2039 37.3945 47.437 38.1615 47.437 39.1033C47.437 40.045 48.2039 40.812 49.1457 40.812H73.5437V51.6275C73.5437 52.5693 74.3107 53.3363 75.2525 53.3363H87.369L89.5729 56.1809V64.0644H86.8835C86.136 61.2586 83.602 59.3169 80.6894 59.3169C77.7768 59.3169 75.2428 61.2683 74.4952 64.0644H65.4758C64.7282 61.2586 62.1942 59.3169 59.2816 59.3169C56.369 59.3169 53.835 61.2683 53.0874 64.0644H49.1457C48.2039 64.0644 47.437 64.8314 47.437 65.7732C47.437 66.7149 48.2039 67.4819 49.1457 67.4819H53.1166C53.903 70.2198 56.4175 72.1324 59.2816 72.1324C62.1457 72.1324 64.6602 70.2295 65.4467 67.4819H74.5243C75.3107 70.2198 77.8253 72.1324 80.6894 72.1324C83.5534 72.1324 86.068 70.2295 86.8544 67.4819H91.2913C92.2331 67.4819 93 66.7149 93 65.7732V55.6081C93 55.2295 92.8738 54.8508 92.6408 54.5596ZM85.4564 49.9285H76.9709V43.9479H82.4564L85.4564 49.9285ZM83.6797 65.7343C83.6797 67.3848 82.3399 68.7246 80.6894 68.7246C79.0389 68.7246 77.6991 67.3848 77.6991 65.7343C77.6991 64.0839 79.0389 62.7441 80.6894 62.7441C82.3399 62.7538 83.6797 64.0936 83.6797 65.7343ZM62.2719 65.7343C62.2719 67.3848 60.9321 68.7246 59.2816 68.7246C57.6311 68.7246 56.2913 67.3848 56.2913 65.7343C56.2913 64.0839 57.6311 62.7441 59.2816 62.7441C60.9321 62.7538 62.2719 64.0936 62.2719 65.7343Z" fill="#02AC8F"/>
<path d="M56.1844 57.8513C56.1844 57.395 56.0097 56.9678 55.6796 56.6377C55.3592 56.3173 54.9223 56.1328 54.466 56.1328H47.2718C46.33 56.1328 45.563 56.8998 45.563 57.8416C45.563 58.7833 46.33 59.5503 47.2718 59.5503H54.4757C55.4174 59.56 56.1844 58.793 56.1844 57.8513Z" fill="#02AC8F"/>
<path d="M59.7864 51.6863C59.7864 50.7445 59.0194 49.9775 58.0777 49.9775H44.7087C43.767 49.9775 43 50.7445 43 51.6863C43 52.628 43.767 53.395 44.7087 53.395H58.0777C59.0194 53.4047 59.7864 52.6377 59.7864 51.6863Z" fill="#02AC8F"/>
<path d="M47.2718 47.2397H60.6407C61.5825 47.2397 62.3495 46.4727 62.3495 45.5309C62.3495 45.0746 62.1747 44.6475 61.8446 44.3174C61.5242 43.997 61.0873 43.8125 60.631 43.8125H47.2718C46.33 43.8125 45.563 44.5795 45.563 45.5212C45.563 46.4727 46.33 47.2397 47.2718 47.2397Z" fill="#02AC8F"/>
<circle cx="40" cy="40.2227" r="40" fill="#02AC8F" fill-opacity="0.2"/>
</svg>
