<svg width="92" height="81" viewBox="0 0 92 81" fill="none" xmlns="http://www.w3.org/2000/svg">
<g clip-path="url(#clip0_1_4861)">
<path d="M44.9875 50.2977C45.4375 50.4852 45.9625 50.4852 46.425 50.2852L50.725 48.4727C51.675 48.0727 52.125 46.9727 51.725 46.0227C51.325 45.0727 50.225 44.6227 49.275 45.0227H49.2625C52.675 38.2852 59.675 33.9727 67.275 33.9727C76.4875 33.9727 84.525 40.1977 86.8375 49.1102C87.05 49.9352 87.8 50.5102 88.65 50.5102C88.8125 50.5102 88.9625 50.4852 89.125 50.4477C90.125 50.1852 90.725 49.1602 90.475 48.1602C87.725 37.6102 78.1875 30.2227 67.275 30.2227C62.6625 30.2227 58.175 31.5477 54.3 34.0352C50.5875 36.4352 47.625 39.7852 45.7 43.7727L45.6 43.5227C45.4 43.0602 45.0375 42.7102 44.575 42.5102C44.1125 42.3227 43.6 42.3227 43.1375 42.5227C42.675 42.7227 42.325 43.0852 42.125 43.5477C41.9375 44.0102 41.9375 44.5227 42.1375 44.9852L43.95 49.2852C44.1625 49.7477 44.525 50.1102 44.9875 50.2977Z" fill="#02AC8F"/>
<path d="M91.85 65.1723L90.0375 60.8723C89.85 60.4223 89.475 60.0473 89.0125 59.8598C88.55 59.6723 88.0375 59.6723 87.575 59.8723L83.275 61.6848C82.8125 61.8848 82.4625 62.2473 82.2625 62.7098C82.075 63.1723 82.075 63.6848 82.275 64.1473C82.475 64.6098 82.8375 64.9598 83.3 65.1598C83.7625 65.3473 84.275 65.3473 84.7375 65.1473L84.925 65.0598C81.575 72.0098 74.5 76.4723 66.725 76.4723C57.5125 76.4723 49.475 70.2473 47.1625 61.3348C46.9 60.3348 45.875 59.7348 44.875 59.9973C44.3875 60.1223 43.9875 60.4348 43.725 60.8598C43.4625 61.2848 43.4 61.7973 43.525 62.2848C46.2875 72.8348 55.8125 80.2223 66.725 80.2223C71.45 80.2223 76.0375 78.8348 79.975 76.2223C83.6125 73.8098 86.5 70.4598 88.3625 66.5348L88.4 66.6223C88.6875 67.3223 89.375 67.7723 90.125 67.7723C90.375 67.7723 90.625 67.7223 90.85 67.6223C91.3125 67.4223 91.6625 67.0598 91.8625 66.5973C92.05 66.1348 92.05 65.6223 91.85 65.1723Z" fill="#02AC8F"/>
<path d="M78 58.7352C80.5125 55.3477 81.4 51.0352 80.325 47.4852C80.15 46.9352 79.75 46.4977 79.2125 46.2852C77.0375 45.4477 74.35 45.3102 71.65 45.9227C69.8 46.3352 68.05 47.0727 66.7 48.0102C64.25 45.9102 61.4375 44.6602 59.125 44.6602C59.1 44.6602 59.0875 44.6602 59.0625 44.6602C58.4 44.6602 57.7875 45.0227 57.45 45.5977C57.125 46.1727 57.125 46.8852 57.45 47.4602C58.3375 48.9977 57.95 50.4102 57.225 52.5852C56.6875 54.2102 56.1375 55.8852 56.3625 57.7851C56.675 60.5976 58.6375 63.1851 61.35 64.3851C62.3625 64.8351 63.4125 65.0601 64.4625 65.0601C64.5625 65.0601 64.6625 65.0601 64.7625 65.0476L65.8875 68.8351C66.125 69.6226 66.8625 70.1726 67.6875 70.1726C67.8625 70.1726 68.05 70.1476 68.225 70.0976C68.7 69.9601 69.1 69.6351 69.3375 69.1976C69.575 68.7601 69.625 68.2476 69.4875 67.7726L68.425 64.2101C70.2 64.0226 71.875 63.5226 73.4125 62.7101C75.2 61.7476 76.75 60.4101 78 58.7352ZM71.4125 54.7227C70.975 53.4102 70.25 52.0477 69.2875 50.7852C71.175 49.6727 74.3125 48.9102 76.9375 49.5102C77.275 51.7602 76.525 54.4227 74.9875 56.5102C74.35 57.3727 73.275 58.5226 71.6875 59.3851C72.05 57.9227 71.9625 56.3602 71.4125 54.7227ZM62.575 57.6602L63.625 61.2226C63.3125 61.1476 63.05 61.0476 62.8625 60.9726C61.3625 60.3101 60.25 58.8727 60.075 57.3852C59.95 56.2852 60.35 55.0602 60.7875 53.7602C61.2375 52.3727 61.75 50.8102 61.7125 49.1352C64.4125 50.4727 67.0125 53.3227 67.8625 55.8976C68.4125 57.5726 68.1875 58.9726 67.1875 60.0351L66.1625 56.5977C66.025 56.1227 65.7 55.7227 65.2625 55.4852C64.825 55.2477 64.3125 55.1977 63.8375 55.3352C62.8375 55.6227 62.275 56.6602 62.575 57.6602Z" fill="#02AC8F"/>
</g>
<circle cx="40" cy="40.2227" r="40" fill="#02AC8F" fill-opacity="0.2"/>
<defs>
<clipPath id="clip0_1_4861">
<rect width="50" height="50" fill="white" transform="translate(42 30.2227)"/>
</clipPath>
</defs>
</svg>
