<svg width="32" height="32" viewBox="0 0 32 32" fill="none" xmlns="http://www.w3.org/2000/svg">
<path d="M3.75032 17.4115C2.56815 16.8 1.67134 15.944 0.978344 14.8433C0.326114 13.7427 0 12.5198 0 11.1745C0 9.8293 0.326114 8.56561 0.978344 7.50573C1.63057 6.4051 2.56815 5.54905 3.75032 4.93758C4.93249 4.32612 6.23695 4 7.70446 4C9.17198 4 10.5172 4.32612 11.6586 4.93758C12.8408 5.54905 13.7376 6.4051 14.4306 7.50573C15.0828 8.60637 15.4089 9.8293 15.4089 11.1745C15.4089 12.5198 15.0828 13.7834 14.4306 14.8433C13.7784 15.944 12.8408 16.8 11.6586 17.4115C10.4764 18.0229 9.17198 18.3491 7.70446 18.3491C6.23695 18.3491 4.89172 18.0229 3.75032 17.4115ZM9.25351 14.1911C9.70192 13.9057 10.0688 13.4981 10.3541 13.0089C10.6395 12.5198 10.7618 11.9083 10.7618 11.2153C10.7618 10.5223 10.6395 9.91083 10.3541 9.42166C10.0688 8.89172 9.70192 8.52484 9.25351 8.23949C8.8051 7.95414 8.27516 7.83185 7.70446 7.83185C7.13376 7.83185 6.60383 7.95414 6.15542 8.23949C5.70701 8.52484 5.34013 8.93249 5.05478 9.42166C4.76943 9.9516 4.64714 10.5223 4.64714 11.2153C4.64714 11.9083 4.76943 12.5198 5.05478 13.0089C5.34013 13.5389 5.70701 13.9057 6.15542 14.1911C6.60383 14.4764 7.13376 14.5987 7.70446 14.5987C8.27516 14.5987 8.8051 14.4764 9.25351 14.1911Z" fill="#02AC8F"/>
<path d="M20.3414 17.4115C19.1592 16.8 18.2624 15.944 17.5694 14.8433C16.9172 13.7427 16.5911 12.5198 16.5911 11.1745C16.5911 9.8293 16.9172 8.56561 17.5694 7.50573C18.2216 6.4051 19.1592 5.54905 20.3414 4.93758C21.5236 4.32612 22.828 4 24.2955 4C25.763 4 27.1083 4.32612 28.2497 4.93758C29.4318 5.54905 30.3287 6.4051 31.0216 7.50573C31.6739 8.60637 32 9.8293 32 11.1745C32 12.5198 31.6739 13.7834 31.0216 14.8433C30.3694 15.944 29.4318 16.8 28.2497 17.4115C27.0675 18.0229 25.763 18.3491 24.2955 18.3491C22.828 18.3491 21.4828 18.0229 20.3414 17.4115ZM25.8446 14.1911C26.293 13.9057 26.6599 13.4981 26.9452 13.0089C27.2306 12.5198 27.3529 11.9083 27.3529 11.2153C27.3529 10.5223 27.2306 9.91083 26.9452 9.42166C26.6599 8.89172 26.293 8.52484 25.8446 8.23949C25.3962 7.95414 24.8662 7.83185 24.2955 7.83185C23.7248 7.83185 23.1949 7.95414 22.7465 8.23949C22.2981 8.52484 21.9312 8.93249 21.6458 9.42166C21.3605 9.9516 21.2382 10.5223 21.2382 11.2153C21.2382 11.9083 21.3605 12.5198 21.6458 13.0089C21.9312 13.5389 22.2981 13.9057 22.7465 14.1911C23.1949 14.4764 23.7248 14.5987 24.2955 14.5987C24.8662 14.5987 25.3962 14.4764 25.8446 14.1911Z" fill="#02AC8F"/>
<path d="M15.9796 28.8258C11.0879 28.8258 6.76689 26.2169 5.62549 22.5889L9.53887 21.4067C10.028 23.0373 12.637 24.7902 15.9796 24.7902C19.2 24.7902 21.8089 22.9965 22.3796 21.3252L26.2115 22.6704C24.9886 26.2577 20.6675 28.8258 15.9796 28.8258Z" fill="#02AC8F"/>
</svg>
