<svg width="93" height="81" fill="none" xmlns="http://www.w3.org/2000/svg"><circle cx="40" cy="40.223" r="40" fill="#02AC8F" fill-opacity=".2"/><g clip-path="url(#clip0_1_4843)"><path d="M91.196 39.328l-21.804-8.965a1.876 1.876 0 00-1.425 0l-21.804 8.965A1.88 1.88 0 0045 41.065v28.33c0 .763.463 1.45 1.163 1.739l21.804 8.951c.225.1.475.138.712.138.175 0 .35-.025.513-.075l.013.037.212-.112a.862.862 0 00.125-.05l21.654-8.89a1.862 1.862 0 001.163-1.737v-28.33c0-.763-.45-1.451-1.163-1.739zm-5.5 1.8l-17.004 6.989-7.164-2.95 16.478-7.19 7.69 3.15zm-34.02 0l17.003-6.989 4.489 1.838-16.503 7.201-4.989-2.05zm5.226 15.128a1.873 1.873 0 001.876-1.876v-6.263l8.026 3.3V75.56l-18.04-7.426v-24.13l6.25 2.576v7.801c0 1.026.85 1.876 1.888 1.876zm31.694-12.253v24.142L70.555 75.56V51.405l18.04-7.402z" fill="#02AC8F"/></g><defs><clipPath id="clip0_1_4843"><path fill="#fff" transform="translate(45 30.223)" d="M0 0h47.35v50H0z"/></clipPath></defs></svg>