<svg width="125" height="112" fill="none" xmlns="http://www.w3.org/2000/svg"><g clip-path="url(#clip0_1_6098)"><path d="M122.663 54.74l-30.52-12.547a2.625 2.625 0 00-1.996 0L59.627 54.74A2.633 2.633 0 0058 57.173v39.655c0 1.067.648 2.03 1.627 2.432l30.52 12.53c.316.14.665.193.998.193.245 0 .49-.035.718-.105l.017.052.297-.157c.053-.018.105-.035.175-.07l30.311-12.443a2.607 2.607 0 001.627-2.432V57.173c0-1.068-.63-2.03-1.627-2.433zm-7.7 2.52l-23.8 9.783-10.028-4.13L104.2 52.85l10.763 4.41zm-47.618 0l23.8-9.782 6.282 2.572-23.1 10.08-6.982-2.87zm7.315 21.176a2.621 2.621 0 002.625-2.626v-8.767l11.235 4.62v33.792L63.268 95.061V61.285l8.75 3.606v10.92c0 1.434 1.19 2.624 2.642 2.624zm44.363-17.15v33.792L93.77 105.455v-33.81l25.253-10.36z" fill="#02AC8F"/></g><circle cx="50" cy="50" r="50" fill="#02AC8F" fill-opacity=".2"/><defs><clipPath id="clip0_1_6098"><path fill="#fff" transform="translate(58 42)" d="M0 0h66.29v70H0z"/></clipPath></defs></svg>