<svg width="89" height="81" fill="none" xmlns="http://www.w3.org/2000/svg"><circle cx="40" cy="40.223" r="40" fill="#02AC8F" fill-opacity=".2"/><g clip-path="url(#clip0_1_4816)" fill="#02AC8F"><path d="M86.26 42.005H50.247A2.255 2.255 0 0048 44.252a2.249 2.249 0 002.247 2.247h2.247v27.004a6.757 6.757 0 006.75 6.75h18.007a6.757 6.757 0 006.751-6.75V46.499h2.247a2.249 2.249 0 002.247-2.247 2.24 2.24 0 00-2.236-2.247zm-6.752 31.508a2.249 2.249 0 01-2.246 2.247H59.255a2.249 2.249 0 01-2.247-2.247V46.51h22.5v27.004zM63.749 39.758h8.998a2.249 2.249 0 002.247-2.247c0-1.234-1.002-2.257-2.237-2.257H63.76a2.258 2.258 0 00-2.258 2.247c0 1.234 1.013 2.257 2.247 2.257z"/><path d="M63.749 69.01a2.249 2.249 0 002.247-2.247V53.26a2.249 2.249 0 00-2.247-2.246 2.249 2.249 0 00-2.247 2.246v13.503a2.255 2.255 0 002.247 2.246zm9.008 0a2.249 2.249 0 002.247-2.247V53.26a2.249 2.249 0 00-2.247-2.246 2.249 2.249 0 00-2.246 2.246v13.503c-.011 1.234 1.002 2.246 2.246 2.246z"/></g><defs><clipPath id="clip0_1_4816"><path fill="#fff" transform="translate(48 35.223)" d="M0 0h40.497v45H0z"/></clipPath></defs></svg>