<svg width="93" height="81" fill="none" xmlns="http://www.w3.org/2000/svg"><g clip-path="url(#clip0_1_4852)"><path d="M90.913 30.223H45.087A2.09 2.09 0 0043 32.309c0 7.559 2.236 14.168 7.034 20.815 2.949 4.073 8.133 7.084 11.02 8.533V73.35c0 .787.462 1.524 1.174 1.874l9.708 4.76c.287.138.6.213.912.213.387 0 .774-.113 1.099-.313.612-.387.987-1.05.987-1.774v-7.996a2.09 2.09 0 00-2.086-2.086 2.09 2.09 0 00-2.087 2.086v4.66l-5.535-2.71V60.357c0-.813-.474-1.562-1.212-1.9-3.61-1.661-8.283-4.572-10.594-7.77-3.836-5.31-5.797-10.495-6.172-16.292h41.517c-.375 5.797-2.35 10.97-6.172 16.279-2.45 3.386-7.047 6.36-10.532 7.796a2.076 2.076 0 00-1.125 2.724 2.086 2.086 0 002.724 1.124c3.723-1.55 9.195-4.885 12.306-9.208C90.764 46.465 93 39.855 93 32.297a2.088 2.088 0 00-2.087-2.074z" fill="#02AC8F"/></g><circle cx="40" cy="40.223" r="40" fill="#02AC8F" fill-opacity=".2"/><defs><clipPath id="clip0_1_4852"><path fill="#fff" transform="translate(43 30.223)" d="M0 0h50v50H0z"/></clipPath></defs></svg>