<svg width="119" height="106" fill="none" xmlns="http://www.w3.org/2000/svg"><g clip-path="url(#clip0_1_6106)"><path d="M115.525 46h-55.02A2.51 2.51 0 0058 48.505c0 9.075 2.685 17.01 8.445 24.99 3.54 4.89 9.765 8.505 13.23 10.245v14.04c0 .945.555 1.83 1.41 2.25l11.655 5.715c.345.165.72.255 1.095.255.465 0 .93-.135 1.32-.375a2.517 2.517 0 001.185-2.13v-9.6a2.51 2.51 0 00-2.505-2.505 2.51 2.51 0 00-2.505 2.505v5.595l-6.645-3.255V82.18c0-.975-.57-1.875-1.455-2.28-4.335-1.995-9.945-5.49-12.72-9.33-4.605-6.375-6.96-12.6-7.41-19.56h49.845c-.45 6.96-2.82 13.17-7.41 19.545-2.94 4.065-8.46 7.635-12.645 9.36a2.493 2.493 0 00-1.35 3.27 2.505 2.505 0 003.27 1.35c4.47-1.86 11.04-5.865 14.775-11.055 5.76-7.98 8.445-15.915 8.445-24.99a2.506 2.506 0 00-2.505-2.49z" fill="#02AC8F"/></g><circle cx="50" cy="50" r="50" fill="#02AC8F" fill-opacity=".2"/><defs><clipPath id="clip0_1_6106"><path fill="#fff" transform="translate(58 46)" d="M0 0h60.03v60H0z"/></clipPath></defs></svg>