<svg width="93" height="81" fill="none" xmlns="http://www.w3.org/2000/svg"><path d="M92.64 54.56l-2.902-3.738-4.7-9.35a1.706 1.706 0 00-1.533-.941H76.97v-1.428c0-.942-.767-1.709-1.709-1.709H49.146c-.942 0-1.709.767-1.709 1.71 0 .941.767 1.708 1.709 1.708h24.398v10.816c0 .941.767 1.708 1.709 1.708h12.116l2.204 2.845v7.883h-2.69a6.393 6.393 0 00-6.194-4.747 6.404 6.404 0 00-6.194 4.747h-9.02a6.393 6.393 0 00-6.193-4.747 6.404 6.404 0 00-6.195 4.747h-3.941c-.942 0-1.709.767-1.709 1.71 0 .94.767 1.708 1.709 1.708h3.97a6.428 6.428 0 006.166 4.65 6.417 6.417 0 006.165-4.65h9.077a6.428 6.428 0 006.165 4.65 6.417 6.417 0 006.165-4.65h4.437c.942 0 1.709-.767 1.709-1.709V55.608c0-.378-.126-.757-.36-1.048zm-7.184-4.632h-8.485v-5.98h5.485l3 5.98zM83.68 65.734a2.991 2.991 0 11-2.99-2.99c1.65.01 2.99 1.35 2.99 2.99zm-21.408 0c0 1.65-1.34 2.99-2.99 2.99-1.65 0-2.99-1.34-2.99-2.99 0-1.65 1.34-2.99 2.99-2.99 1.65.01 2.99 1.35 2.99 2.99z" fill="#02AC8F"/><path d="M56.184 57.851c0-.456-.174-.883-.504-1.213a1.72 1.72 0 00-1.214-.505h-7.194c-.942 0-1.709.767-1.709 1.709 0 .941.767 1.708 1.709 1.708h7.204a1.697 1.697 0 001.708-1.699zm3.602-6.165c0-.941-.767-1.709-1.708-1.709h-13.37c-.941 0-1.708.768-1.708 1.71 0 .941.767 1.708 1.709 1.708h13.369a1.699 1.699 0 001.708-1.709zM47.272 47.24H60.64a1.711 1.711 0 001.204-2.923 1.72 1.72 0 00-1.214-.505H47.27a1.714 1.714 0 00.001 3.428z" fill="#02AC8F"/><circle cx="40" cy="40.223" r="40" fill="#02AC8F" fill-opacity=".2"/></svg>