<svg width="130" height="106" fill="none" xmlns="http://www.w3.org/2000/svg"><g clip-path="url(#clip0_1_6084)" fill="#02AC8F"><path d="M128.693 75.631l-5.012-6.452-8.111-16.14a2.946 2.946 0 00-2.648-1.626h-11.28V48.95a2.954 2.954 0 00-2.95-2.95H53.61a2.954 2.954 0 00-2.95 2.95 2.954 2.954 0 002.95 2.95h42.117v18.67a2.954 2.954 0 002.95 2.95h20.916l3.805 4.91v13.61h-4.643a11.036 11.036 0 00-10.693-8.196 11.055 11.055 0 00-10.692 8.195H81.8a11.036 11.036 0 00-10.693-8.195 11.055 11.055 0 00-10.693 8.195H53.61a2.954 2.954 0 00-2.95 2.95 2.954 2.954 0 002.95 2.95h6.855c1.357 4.726 5.698 8.027 10.642 8.027 4.944 0 9.285-3.284 10.643-8.027h15.67c1.358 4.726 5.698 8.027 10.642 8.027 4.945 0 9.285-3.284 10.643-8.027h7.659a2.954 2.954 0 002.95-2.95V77.44c0-.653-.218-1.307-.62-1.81zm-12.403-7.994h-14.648V57.313h9.47l5.178 10.324zm-3.067 27.285a5.164 5.164 0 01-5.162 5.162 5.164 5.164 0 01-5.162-5.162 5.164 5.164 0 015.162-5.162c2.85.016 5.162 2.33 5.162 5.162zm-36.955 0a5.164 5.164 0 01-5.162 5.162 5.164 5.164 0 01-5.162-5.162 5.164 5.164 0 015.162-5.162c2.85.016 5.162 2.33 5.162 5.162z"/><path d="M65.76 81.313c0-.788-.302-1.525-.872-2.095a2.97 2.97 0 00-2.095-.871H50.374a2.954 2.954 0 00-2.95 2.95 2.954 2.954 0 002.95 2.95H62.81a2.929 2.929 0 002.95-2.934zm6.218-10.643a2.954 2.954 0 00-2.95-2.95H45.95A2.954 2.954 0 0043 70.67a2.954 2.954 0 002.95 2.95h23.078c1.626.017 2.95-1.307 2.95-2.95zm-21.604-7.676h23.078a2.954 2.954 0 002.95-2.95c0-.787-.301-1.524-.871-2.094a2.97 2.97 0 00-2.095-.872H50.374a2.954 2.954 0 00-2.95 2.95 2.958 2.958 0 002.95 2.966z"/></g><circle cx="50" cy="50" r="50" fill="#02AC8F" fill-opacity=".2"/><defs><clipPath id="clip0_1_6084"><path fill="#fff" transform="translate(43 46)" d="M0 0h86.313v60H0z"/></clipPath></defs></svg>