<svg width="128" height="112" fill="none" xmlns="http://www.w3.org/2000/svg"><g clip-path="url(#clip0_1_6114)" fill="#02AC8F"><path d="M62.182 70.105a2.59 2.59 0 002.013-.017l6.02-2.538c1.33-.56 1.96-2.1 1.4-3.43a2.624 2.624 0 00-3.43-1.4h-.017c4.777-9.432 14.577-15.47 25.217-15.47 12.897 0 24.15 8.715 27.387 21.192a2.622 2.622 0 002.538 1.96c.227 0 .437-.034.665-.087a2.65 2.65 0 001.89-3.203C122.015 52.343 108.662 42 93.385 42a33.576 33.576 0 00-18.165 5.337A33.574 33.574 0 0063.18 60.97l-.14-.35a2.707 2.707 0 00-1.435-1.417 2.59 2.59 0 00-2.012.017 2.707 2.707 0 00-1.418 1.435 2.59 2.59 0 00.018 2.012l2.537 6.02a2.738 2.738 0 001.453 1.418zM127.79 90.93l-2.538-6.02a2.646 2.646 0 00-1.435-1.417 2.59 2.59 0 00-2.012.017l-6.02 2.538a2.706 2.706 0 00-1.418 1.435 2.593 2.593 0 00.018 2.012c.28.648.787 1.138 1.435 1.418a2.59 2.59 0 002.012-.018l.263-.122c-4.69 9.73-14.595 15.977-25.48 15.977-12.897 0-24.15-8.715-27.387-21.192a2.625 2.625 0 00-3.203-1.873 2.67 2.67 0 00-1.61 1.208c-.367.595-.455 1.312-.28 1.995C64.002 101.658 77.338 112 92.615 112a33.476 33.476 0 0018.55-5.6 33.467 33.467 0 0011.742-13.562l.053.122a2.61 2.61 0 002.415 1.61c.35 0 .7-.07 1.015-.21a2.708 2.708 0 001.417-1.435 2.545 2.545 0 00-.017-1.995z"/><path d="M108.4 81.918c3.517-4.743 4.76-10.78 3.255-15.75a2.652 2.652 0 00-1.558-1.68c-3.045-1.173-6.807-1.365-10.587-.508-2.59.578-5.04 1.61-6.93 2.923-3.43-2.94-7.368-4.69-10.605-4.69h-.088a2.63 2.63 0 00-2.257 1.312 2.661 2.661 0 000 2.608c1.242 2.152.7 4.13-.315 7.175-.753 2.275-1.523 4.62-1.208 7.28.438 3.937 3.185 7.56 6.983 9.24 1.417.63 2.887.945 4.357.945.14 0 .28 0 .42-.018l1.575 5.303a2.647 2.647 0 003.273 1.767 2.598 2.598 0 001.557-1.26c.333-.612.403-1.33.21-1.995l-1.487-4.987c2.485-.263 4.83-.963 6.982-2.1a19.54 19.54 0 006.423-5.565zM99.177 76.3c-.612-1.837-1.627-3.745-2.975-5.512 2.643-1.558 7.035-2.625 10.71-1.785.473 3.15-.577 6.877-2.73 9.8a14.27 14.27 0 01-4.62 4.025c.508-2.048.385-4.235-.385-6.528zm-12.372 4.113l1.47 4.987a7.631 7.631 0 01-1.068-.35c-2.1-.927-3.657-2.94-3.902-5.022-.175-1.54.385-3.255.997-5.075.63-1.943 1.348-4.13 1.295-6.475 3.78 1.872 7.42 5.862 8.61 9.467.77 2.345.455 4.305-.945 5.793l-1.435-4.813a2.598 2.598 0 00-1.26-1.557 2.641 2.641 0 00-1.995-.21 2.593 2.593 0 00-1.767 3.255z"/></g><circle cx="50" cy="50" r="50" fill="#02AC8F" fill-opacity=".2"/><defs><clipPath id="clip0_1_6114"><path fill="#fff" transform="translate(58 42)" d="M0 0h70v70H0z"/></clipPath></defs></svg>