<svg width="112" height="106" fill="none" xmlns="http://www.w3.org/2000/svg"><g clip-path="url(#clip0_1_6072)" fill="#02AC8F"><path d="M109.001 54.999H60.995A3.007 3.007 0 0058 57.994c0 1.66 1.35 2.995 2.995 2.995h2.995v35.997c0 4.964 4.036 9 9 9h24.002c4.964 0 9-4.036 9-9V60.99h2.995a2.998 2.998 0 002.995-2.995c.014-1.645-1.336-2.995-2.981-2.995zm-9 42.001c0 1.66-1.35 2.996-2.995 2.996H73.004A2.998 2.998 0 0170.008 97V61.003h29.993V97zM78.994 52.004h11.994c1.66 0 2.995-1.35 2.995-2.995S92.647 46 91.003 46H79.007a3.01 3.01 0 00-3.01 2.995c0 1.645 1.35 3.01 2.996 3.01z"/><path d="M78.994 90.997a2.998 2.998 0 002.995-2.996V70.003c0-1.66-1.35-2.995-2.995-2.995a2.998 2.998 0 00-2.995 2.995V88a3.007 3.007 0 002.995 2.996zm12.008 0c1.66 0 2.995-1.35 2.995-2.996V70.003c0-1.66-1.35-2.995-2.995-2.995a2.998 2.998 0 00-2.995 2.995V88c-.014 1.646 1.336 2.996 2.995 2.996z"/></g><circle cx="50" cy="50" r="50" fill="#02AC8F" fill-opacity=".2"/><defs><clipPath id="clip0_1_6072"><path fill="#fff" transform="translate(58 46)" d="M0 0h53.996v60H0z"/></clipPath></defs></svg>