<svg width="92" height="81" fill="none" xmlns="http://www.w3.org/2000/svg"><g clip-path="url(#clip0_1_4861)" fill="#02AC8F"><path d="M44.987 50.298c.45.187.975.187 1.438-.013l4.3-1.812c.95-.4 1.4-1.5 1-2.45-.4-.95-1.5-1.4-2.45-1h-.012c3.412-6.738 10.412-11.05 18.012-11.05A20.21 20.21 0 0186.838 49.11c.212.825.962 1.4 1.812 1.4a1.892 1.892 0 001.825-2.35c-2.75-10.55-12.287-17.937-23.2-17.937-4.613 0-9.1 1.325-12.975 3.812a23.981 23.981 0 00-8.6 9.738l-.1-.25a1.934 1.934 0 00-1.025-1.013 1.85 1.85 0 00-1.438.013c-.462.2-.812.562-1.012 1.025a1.85 1.85 0 00.013 1.437l1.812 4.3c.212.463.575.825 1.037 1.013zM91.85 65.172l-1.813-4.3a1.892 1.892 0 00-1.025-1.012 1.85 1.85 0 00-1.437.012l-4.3 1.813c-.463.2-.813.562-1.013 1.025a1.85 1.85 0 00.013 1.437c.2.463.563.813 1.025 1.013a1.85 1.85 0 001.438-.013l.187-.087c-3.35 6.95-10.425 11.412-18.2 11.412a20.208 20.208 0 01-19.562-15.137c-.263-1-1.288-1.6-2.288-1.338a1.907 1.907 0 00-1.15.863 1.832 1.832 0 00-.2 1.425c2.763 10.55 12.288 17.937 23.2 17.937 4.725 0 9.313-1.387 13.25-4a23.908 23.908 0 008.388-9.687l.037.087a1.865 1.865 0 002.45 1c.463-.2.813-.562 1.013-1.025a1.82 1.82 0 00-.013-1.425z"/><path d="M78 58.735c2.513-3.387 3.4-7.7 2.325-11.25a1.895 1.895 0 00-1.112-1.2c-2.175-.837-4.863-.975-7.563-.362-1.85.412-3.6 1.15-4.95 2.087-2.45-2.1-5.263-3.35-7.575-3.35h-.063a1.88 1.88 0 00-1.612.938 1.9 1.9 0 000 1.862c.887 1.538.5 2.95-.225 5.125-.538 1.625-1.087 3.3-.863 5.2.313 2.813 2.276 5.4 4.988 6.6a7.634 7.634 0 003.113.675c.1 0 .2 0 .3-.012l1.124 3.787a1.89 1.89 0 002.338 1.263 1.856 1.856 0 001.113-.9c.237-.438.287-.95.15-1.425l-1.063-3.563a13.682 13.682 0 004.987-1.5A13.96 13.96 0 0078 58.735zm-6.588-4.012c-.437-1.313-1.162-2.675-2.125-3.938 1.888-1.112 5.025-1.875 7.65-1.275.338 2.25-.412 4.913-1.95 7a10.198 10.198 0 01-3.3 2.875c.363-1.462.276-3.025-.275-4.662zm-8.837 2.937l1.05 3.563a5.451 5.451 0 01-.763-.25c-1.5-.663-2.612-2.1-2.787-3.588-.125-1.1.275-2.325.712-3.625.45-1.387.963-2.95.925-4.625 2.7 1.338 5.3 4.188 6.15 6.763.55 1.675.326 3.075-.674 4.137l-1.026-3.437a1.856 1.856 0 00-.9-1.113 1.887 1.887 0 00-1.425-.15 1.852 1.852 0 00-1.262 2.325z"/></g><circle cx="40" cy="40.223" r="40" fill="#02AC8F" fill-opacity=".2"/><defs><clipPath id="clip0_1_4861"><path fill="#fff" transform="translate(42 30.223)" d="M0 0h50v50H0z"/></clipPath></defs></svg>